<svg width="18" height="16" viewBox="0 0 18 16" fill="none" xmlns="http://www.w3.org/2000/svg">
<path d="M0 1.14286C0 0.839753 0.118527 0.549063 0.329505 0.334735C0.540483 0.120408 0.826631 0 1.125 0H16.875C17.1734 0 17.4595 0.120408 17.6705 0.334735C17.8815 0.549063 18 0.839753 18 1.14286C18 1.44596 17.8815 1.73665 17.6705 1.95098C17.4595 2.16531 17.1734 2.28571 16.875 2.28571H1.125C0.826631 2.28571 0.540483 2.16531 0.329505 1.95098C0.118527 1.73665 0 1.44596 0 1.14286ZM0 8C0 7.6969 0.118527 7.40621 0.329505 7.19188C0.540483 6.97755 0.826631 6.85714 1.125 6.85714H16.875C17.1734 6.85714 17.4595 6.97755 17.6705 7.19188C17.8815 7.40621 18 7.6969 18 8C18 8.3031 17.8815 8.5938 17.6705 8.80812C17.4595 9.02245 17.1734 9.14286 16.875 9.14286H1.125C0.826631 9.14286 0.540483 9.02245 0.329505 8.80812C0.118527 8.5938 0 8.3031 0 8ZM1.125 13.7143C0.826631 13.7143 0.540483 13.8347 0.329505 14.049C0.118527 14.2633 0 14.554 0 14.8571C0 15.1602 0.118527 15.4509 0.329505 15.6653C0.540483 15.8796 0.826631 16 1.125 16H16.875C17.1734 16 17.4595 15.8796 17.6705 15.6653C17.8815 15.4509 18 15.1602 18 14.8571C18 14.554 17.8815 14.2633 17.6705 14.049C17.4595 13.8347 17.1734 13.7143 16.875 13.7143H1.125Z" fill="white"/>
</svg>
