<svg width="22" height="22" viewBox="0 0 22 22" fill="none" xmlns="http://www.w3.org/2000/svg">
<path d="M15.0669 1.0455C15.7074 0.404834 16.5676 0.0317563 17.473 0.00193563C18.3785 -0.027885 19.2614 0.287784 19.9427 0.884921L20.114 1.0455L20.9549 1.88648C21.5953 2.52694 21.9681 3.3869 21.9979 4.29206C22.0278 5.19723 21.7123 6.07986 21.1155 6.76107L20.9549 6.93236L7.61821 20.2703C7.42964 20.4588 7.20121 20.6027 6.94971 20.6914L6.757 20.7473L1.45895 21.9701C1.27331 22.0133 1.08002 22.0112 0.895352 21.9641C0.710681 21.9169 0.540039 21.8261 0.397797 21.6993C0.255554 21.5724 0.145876 21.4132 0.0779972 21.2351C0.0101188 21.057 -0.013972 20.8652 0.00775398 20.6759L0.0315441 20.5415L1.25317 15.2422C1.31352 14.9823 1.43139 14.7393 1.59812 14.5309L1.73016 14.3822L15.0669 1.0455ZM14.2259 5.2504L3.53226 15.9441L2.77573 19.2247L6.05639 18.467L16.75 7.77334L14.2259 5.2504ZM18.432 2.72746C18.2272 2.52266 17.9547 2.39963 17.6656 2.38145C17.3765 2.36327 17.0907 2.4512 16.8618 2.62874L16.75 2.72746L15.9079 3.56844L18.432 6.09138L19.273 5.2504C19.4778 5.04558 19.6008 4.77306 19.619 4.48398C19.6372 4.1949 19.5492 3.90912 19.3717 3.68026L19.273 3.56844L18.432 2.72746Z" fill="white"/>
</svg>
