<svg width="32" height="32" viewBox="0 0 32 32" fill="none" xmlns="http://www.w3.org/2000/svg">
<path d="M12.8762 22.2525C10.3954 22.2525 8.2961 21.3931 6.57821 19.6743C4.86031 17.9555 4.00091 15.8561 4 13.3762C3.99909 10.8964 4.85849 8.79701 6.57821 7.07821C8.29792 5.3594 10.3973 4.5 12.8762 4.5C15.3552 4.5 17.455 5.3594 19.1756 7.07821C20.8963 8.79701 21.7552 10.8964 21.7525 13.3762C21.7525 14.3777 21.5932 15.3222 21.2745 16.2098C20.9559 17.0974 20.5235 17.8826 19.9772 18.5654L27.6245 26.2127C27.8748 26.463 28 26.7816 28 27.1686C28 27.5555 27.8748 27.8741 27.6245 28.1245C27.3741 28.3748 27.0555 28.5 26.6686 28.5C26.2816 28.5 25.963 28.3748 25.7127 28.1245L18.0654 20.4772C17.3826 21.0235 16.5974 21.4559 15.7098 21.7745C14.8222 22.0932 13.8777 22.2525 12.8762 22.2525ZM12.8762 19.5213C14.5832 19.5213 16.0344 18.9241 17.2297 17.7297C18.425 16.5353 19.0222 15.0841 19.0213 13.3762C19.0204 11.6684 18.4232 10.2177 17.2297 9.02415C16.0362 7.83064 14.585 7.23297 12.8762 7.23115C11.1675 7.22933 9.71676 7.827 8.52415 9.02415C7.33155 10.2213 6.73388 11.672 6.73115 13.3762C6.72842 15.0805 7.32609 16.5316 8.52415 17.7297C9.72222 18.9278 11.1729 19.525 12.8762 19.5213Z" fill="white"/>
</svg>
