<svg width="32" height="32" viewBox="0 0 32 32" fill="none" xmlns="http://www.w3.org/2000/svg">
<path d="M16 19.5999C18.1088 19.5999 19.8183 17.9881 19.8183 15.9999C19.8183 14.0117 18.1088 12.3999 16 12.3999C13.8912 12.3999 12.1816 14.0117 12.1816 15.9999C12.1816 17.9881 13.8912 19.5999 16 19.5999Z" stroke="white" stroke-width="2"/>
<path d="M18.2465 4.1824C17.7793 4 17.1862 4 16 4C14.8138 4 14.2207 4 13.7535 4.1824C13.4445 4.30302 13.1637 4.47987 12.9272 4.70287C12.6906 4.92586 12.5031 5.19062 12.3751 5.482C12.258 5.7496 12.2109 6.0628 12.1931 6.5176C12.1848 6.84631 12.0882 7.16768 11.9124 7.45163C11.7365 7.73557 11.4872 7.97283 11.1876 8.1412C10.8832 8.30173 10.5405 8.38681 10.1917 8.38849C9.8429 8.39017 9.49934 8.30839 9.19318 8.1508C8.76552 7.9372 8.45624 7.8196 8.1495 7.7812C7.48042 7.69824 6.80379 7.86917 6.26833 8.2564C5.86868 8.548 5.57085 9.0316 4.97773 10C4.38461 10.9684 4.08678 11.452 4.02187 11.926C3.97813 12.2385 4.00013 12.5561 4.08661 12.8607C4.1731 13.1652 4.32236 13.4507 4.52589 13.7008C4.71426 13.9312 4.97773 14.1244 5.38629 14.3668C5.98832 14.7232 6.37524 15.3304 6.37524 16C6.37524 16.6696 5.98832 17.2768 5.38629 17.632C4.97773 17.8756 4.71299 18.0688 4.52589 18.2992C4.32236 18.5493 4.1731 18.8348 4.08661 19.1393C4.00013 19.4439 3.97813 19.7615 4.02187 20.074C4.08806 20.5468 4.38461 21.0316 4.97646 22C5.57085 22.9684 5.8674 23.452 6.26833 23.7436C6.53362 23.9355 6.83641 24.0762 7.15941 24.1578C7.4824 24.2393 7.81927 24.26 8.15077 24.2188C8.45624 24.1804 8.76552 24.0628 9.19318 23.8492C9.49934 23.6916 9.8429 23.6098 10.1917 23.6115C10.5405 23.6132 10.8832 23.6983 11.1876 23.8588C11.8024 24.1948 12.1677 24.8128 12.1931 25.4824C12.2109 25.9384 12.2568 26.2504 12.3751 26.518C12.5031 26.8094 12.6906 27.0741 12.9272 27.2971C13.1637 27.5201 13.4445 27.697 13.7535 27.8176C14.2207 28 14.8138 28 16 28C17.1862 28 17.7793 28 18.2465 27.8176C18.5555 27.697 18.8363 27.5201 19.0728 27.2971C19.3094 27.0741 19.4969 26.8094 19.6249 26.518C19.742 26.2504 19.7891 25.9384 19.8069 25.4824C19.8323 24.8128 20.1976 24.1936 20.8124 23.8588C21.1168 23.6983 21.4595 23.6132 21.8083 23.6115C22.1571 23.6098 22.5007 23.6916 22.8068 23.8492C23.2345 24.0628 23.5438 24.1804 23.8492 24.2188C24.1807 24.26 24.5176 24.2393 24.8406 24.1578C25.1636 24.0762 25.4664 23.9355 25.7317 23.7436C26.1326 23.4532 26.4292 22.9684 27.0223 22C27.6154 21.0316 27.9132 20.548 27.9781 20.074C28.0219 19.7615 27.9999 19.4439 27.9134 19.1393C27.8269 18.8348 27.6776 18.5493 27.4741 18.2992C27.2857 18.0688 27.0223 17.8756 26.6137 17.6332C26.3158 17.4621 26.0688 17.2225 25.8958 16.9369C25.7229 16.6512 25.6296 16.3289 25.6248 16C25.6248 15.3304 26.0117 14.7232 26.6137 14.368C27.0223 14.1244 27.287 13.9312 27.4741 13.7008C27.6776 13.4507 27.8269 13.1652 27.9134 12.8607C27.9999 12.5561 28.0219 12.2385 27.9781 11.926C27.9119 11.4532 27.6154 10.9684 27.0235 10C26.4292 9.0316 26.1326 8.548 25.7317 8.2564C25.4664 8.06451 25.1636 7.92378 24.8406 7.84224C24.5176 7.7607 24.1807 7.73996 23.8492 7.7812C23.5438 7.8196 23.2345 7.9372 22.8056 8.1508C22.4995 8.30817 22.1562 8.38983 21.8077 8.38816C21.4591 8.38648 21.1167 8.30151 20.8124 8.1412C20.5128 7.97283 20.2635 7.73557 20.0876 7.45163C19.9118 7.16768 19.8152 6.84631 19.8069 6.5176C19.7891 6.0616 19.7432 5.7496 19.6249 5.482C19.4969 5.19062 19.3094 4.92586 19.0728 4.70287C18.8363 4.47987 18.5555 4.30302 18.2465 4.1824Z" stroke="white" stroke-width="2"/>
</svg>
