<svg width="215" height="215" viewBox="0 0 215 215" fill="none" xmlns="http://www.w3.org/2000/svg">
<path fill-rule="evenodd" clip-rule="evenodd" d="M107.083 0C166.225 0 214.167 47.9412 214.167 107.083C214.167 166.225 166.225 214.167 107.083 214.167C47.9412 214.167 0 166.225 0 107.083C0 47.9412 47.9412 0 107.083 0ZM107.083 21.4167C84.3631 21.4167 62.5735 30.4422 46.5079 46.5079C30.4422 62.5735 21.4167 84.3631 21.4167 107.083C21.4167 129.804 30.4422 151.593 46.5079 167.659C62.5735 183.724 84.3631 192.75 107.083 192.75C129.804 192.75 151.593 183.724 167.659 167.659C183.724 151.593 192.75 129.804 192.75 107.083C192.75 84.3631 183.724 62.5735 167.659 46.5079C151.593 30.4422 129.804 21.4167 107.083 21.4167ZM107.083 117.792C120.651 117.792 133.072 122.857 142.507 131.177C144.637 133.057 145.932 135.706 146.109 138.542C146.286 141.378 145.329 144.167 143.449 146.297C141.569 148.427 138.919 149.723 136.084 149.9C133.248 150.077 130.459 149.12 128.329 147.24C122.461 142.065 114.907 139.209 107.083 139.208C98.9343 139.208 91.5027 142.228 85.838 147.24C84.7833 148.17 83.5558 148.883 82.2254 149.339C80.895 149.795 79.4879 149.984 78.0843 149.896C76.6808 149.808 75.3083 149.445 74.0453 148.826C72.7823 148.208 71.6534 147.347 70.7232 146.292C69.793 145.237 69.0796 144.01 68.6238 142.679C68.168 141.349 67.9787 139.942 68.0667 138.538C68.1547 137.135 68.5182 135.762 69.1367 134.499C69.7551 133.236 70.6162 132.107 71.6709 131.177C81.4511 122.552 94.043 117.792 107.083 117.792ZM69.6042 64.25C73.8642 64.25 77.9498 65.9423 80.9621 68.9546C83.9744 71.9669 85.6667 76.0525 85.6667 80.3125C85.6667 84.5725 83.9744 88.6581 80.9621 91.6704C77.9498 94.6827 73.8642 96.375 69.6042 96.375C65.3441 96.375 61.2586 94.6827 58.2463 91.6704C55.234 88.6581 53.5417 84.5725 53.5417 80.3125C53.5417 76.0525 55.234 71.9669 58.2463 68.9546C61.2586 65.9423 65.3441 64.25 69.6042 64.25ZM144.563 64.25C148.823 64.25 152.908 65.9423 155.92 68.9546C158.933 71.9669 160.625 76.0525 160.625 80.3125C160.625 84.5725 158.933 88.6581 155.92 91.6704C152.908 94.6827 148.823 96.375 144.563 96.375C140.302 96.375 136.217 94.6827 133.205 91.6704C130.192 88.6581 128.5 84.5725 128.5 80.3125C128.5 76.0525 130.192 71.9669 133.205 68.9546C136.217 65.9423 140.302 64.25 144.563 64.25Z" fill="white"/>
</svg>
