<svg width="19" height="18" viewBox="0 0 19 18" fill="none" xmlns="http://www.w3.org/2000/svg">
<path d="M9.5 0.75C9.52603 0.750001 9.54822 0.756656 9.56348 0.765625C9.57596 0.772991 9.58951 0.785379 9.60254 0.811523L12.0703 5.76855C12.18 5.98876 12.3913 6.14147 12.6348 6.17676L18.1533 6.97656C18.1853 6.98129 18.2025 6.9919 18.2129 7.00098C18.2254 7.01204 18.2372 7.02865 18.2441 7.0498C18.2511 7.0712 18.2513 7.09097 18.248 7.10547C18.2454 7.11694 18.2388 7.13399 18.2168 7.15527L14.2246 11.0107C14.046 11.1833 13.9646 11.433 14.0068 11.6777L14.9492 17.125C14.9541 17.1532 14.9492 17.1695 14.9443 17.1807C14.9382 17.1946 14.926 17.2113 14.9062 17.2256C14.8862 17.24 14.8642 17.2483 14.8457 17.25C14.8302 17.2514 14.8095 17.2491 14.7812 17.2344L9.84668 14.6611C9.65658 14.5621 9.43437 14.5497 9.23633 14.624L9.15332 14.6611L4.21875 17.2344C4.19052 17.2491 4.1698 17.2514 4.1543 17.25C4.13576 17.2483 4.11382 17.24 4.09375 17.2256C4.07401 17.2113 4.06179 17.1946 4.05566 17.1807C4.05082 17.1695 4.04593 17.1531 4.05078 17.125L4.99316 11.6777C5.03543 11.433 4.95401 11.1833 4.77539 11.0107L0.783203 7.15527C0.761161 7.13399 0.754557 7.11693 0.751953 7.10547C0.748701 7.09098 0.74886 7.07121 0.755859 7.0498C0.762826 7.02866 0.774595 7.01204 0.787109 7.00098C0.797508 6.99189 0.814677 6.98129 0.84668 6.97656L6.36523 6.17676C6.6087 6.14147 6.82003 5.98876 6.92969 5.76855L9.39746 0.811523C9.41049 0.785378 9.42404 0.772991 9.43652 0.765625C9.45178 0.756656 9.47397 0.75 9.5 0.75Z" fill="white" stroke="white" stroke-width="1.5" stroke-linecap="round" stroke-linejoin="round"/>
</svg>
