<svg width="24" height="26" viewBox="0 0 24 26" fill="none" xmlns="http://www.w3.org/2000/svg">
<path d="M20 9.16667L18.88 19.8974C18.7107 21.5241 18.6267 22.3367 18.24 22.9513C17.9009 23.4924 17.4021 23.925 16.8067 24.1946C16.1307 24.5 15.28 24.5 13.5733 24.5H10.4267C8.72133 24.5 7.86933 24.5 7.19333 24.1933C6.5974 23.9239 6.09815 23.4913 5.75867 22.9501C5.37467 22.3367 5.28933 21.5241 5.11867 19.8974L4 9.16667M14 17.4722V11.0833M10 17.4722V11.0833M2 5.97222H8.15333M8.15333 5.97222L8.668 2.558C8.81733 1.937 9.356 1.5 9.97467 1.5H14.0253C14.644 1.5 15.1813 1.937 15.332 2.558L15.8467 5.97222M8.15333 5.97222H15.8467M15.8467 5.97222H22" stroke="white" stroke-width="2" stroke-linecap="round" stroke-linejoin="round"/>
</svg>
